<svg xmlns="http://www.w3.org/2000/svg" viewBox="0 0 200 200" fill="none" stroke="currentColor" stroke-width="2" stroke-linecap="round" stroke-linejoin="round">
  <!-- Cup body -->
  <path d="M55 100
           L 60 160
           C 62 172, 70 178, 80 178
           L 120 178
           C 130 178, 138 172, 140 160
           L 145 100" />
  <!-- Cup rim -->
  <ellipse cx="100" cy="100" rx="45" ry="8" />
  <!-- Cup handle -->
  <path d="M142 108
           C 162 108, 162 140, 142 140
           L 138 140" />
  <!-- Highland steam / rising line -->
  <path d="M85 92
           C 80 70, 95 55, 85 40
           C 75 25, 90 15, 100 10
           C 110 5, 115 20, 105 30" />
  <path d="M100 92
           C 105 72, 95 58, 105 42
           C 112 28, 102 18, 108 8" />
  <!-- Rising sun behind steam -->
  <path d="M122 38 A 14 14 0 0 1 122 10 A 14 14 0 0 1 122 38" />
  <line x1="122" y1="2" x2="122" y2="6" />
  <line x1="122" y1="42" x2="122" y2="46" />
  <line x1="106" y1="24" x2="110" y2="24" />
  <line x1="134" y1="24" x2="138" y2="24" />
  <line x1="110" y1="12" x2="113" y2="15" />
  <line x1="131" y1="33" x2="134" y2="36" />
  <line x1="110" y1="36" x2="113" y2="33" />
  <line x1="131" y1="15" x2="134" y2="12" />
  <!-- Dove in flight near sun -->
  <path d="M135 18
           C 142 12, 150 12, 155 16
           C 150 18, 145 20, 140 22
           C 145 24, 152 24, 158 20" />
  <!-- Dove body -->
  <ellipse cx="148" cy="20" rx="4" ry="2.5" transform="rotate(-15 148 20)" />
  <!-- Dove head -->
  <circle cx="156" cy="17" r="2" />
  <!-- Branch with coffee bean in beak -->
  <path d="M158 17 L 165 14" />
  <line x1="162" y1="13" x2="163" y2="17" />
  <line x1="164" y1="12" x2="165" y2="16" />
  <!-- Small coffee bean on branch -->
  <path d="M163 14 C 164 13, 165 13, 166 14 C 165 15, 164 15, 163 14 Z" />
</svg>
