<svg xmlns="http://www.w3.org/2000/svg" viewBox="0 0 400 24" fill="none">
  <g stroke="currentColor" stroke-width="1" fill="none">
    <line x1="0" y1="12" x2="160" y2="12" opacity="0.5"/>
    <line x1="240" y1="12" x2="400" y2="12" opacity="0.5"/>
    <!-- center motif: diamond + dots -->
    <path d="M180 12 L186 6 L192 12 L186 18 Z"/>
    <path d="M184 12 L186 10 L188 12 L186 14 Z" fill="currentColor"/>
    <path d="M200 4 L208 12 L200 20 L192 12 Z"/>
    <path d="M196 12 L200 8 L204 12 L200 16 Z"/>
    <circle cx="200" cy="12" r="1.2" fill="currentColor"/>
    <path d="M220 12 L214 6 L208 12 L214 18 Z"/>
    <path d="M216 12 L214 10 L212 12 L214 14 Z" fill="currentColor"/>
    <!-- side dots -->
    <circle cx="170" cy="12" r="1" fill="currentColor"/>
    <circle cx="230" cy="12" r="1" fill="currentColor"/>
  </g>
</svg>
